<?xml version="1.0" encoding="UTF-8"?>
<svg version="1.1" xmlns="http://www.w3.org/2000/svg" width="512" height="512">
<path d="M0 0 C40.73258691 37.09857902 66.02515215 90.53183589 68.75683594 145.60009766 C71.35658136 205.24748248 50.85149524 260.57794808 10.75683594 304.60009766 C-27.93161451 345.99314124 -82.40228689 369.90666696 -138.90722656 371.81884766 C-198.08328558 373.11538802 -253.02557579 351.0823785 -295.70410156 310.33056641 C-335.85961751 271.24795203 -358.30392739 216.78829495 -359.52661133 160.9831543 C-360.09627253 102.0016777 -337.31308052 47.55856006 -296.32836914 5.44873047 C-227.86859712 -63.56894457 -117.13368472 -75.618845 0 0 Z " fill="#2196F3" transform="translate(401.2431640625,98.39990234375)"/>
<path d="M0 0 C2.2753149 0.03213928 4.54350691 0.00023769 6.81860352 -0.03808594 C15.52759067 -0.06255122 22.51373304 0.84566992 29.34399414 6.78222656 C33.01286813 10.87628888 34.47030193 14.97890794 34.46424866 20.4329071 C34.46562332 21.38783051 34.46699799 22.34275391 34.46841431 23.32661438 C34.46302139 24.89538582 34.46302139 24.89538582 34.45751953 26.49584961 C34.45766556 27.59844116 34.45781158 28.70103271 34.45796204 29.83703613 C34.45726417 33.48935906 34.44947758 37.14163127 34.44165039 40.79394531 C34.43978577 43.32314526 34.43836207 45.85234558 34.43736267 48.38154602 C34.43393182 54.36321319 34.42604658 60.34485852 34.41601318 66.32651693 C34.40483802 73.13661158 34.39933805 79.9467071 34.39431775 86.75680864 C34.3838636 100.76529139 34.3662729 114.77375798 34.34399414 128.78222656 C35.27522346 128.8702504 35.27522346 128.8702504 36.2252655 128.96005249 C37.03812515 129.04236115 37.8509848 129.1246698 38.68847656 129.20947266 C39.49492111 129.28878021 40.30136566 129.36808777 41.13224792 129.44979858 C46.74936268 130.29405734 50.3677554 134.61074007 53.84399414 138.78222656 C56.58613818 144.30340447 56.14020602 150.83122913 55.34399414 156.78222656 C53.08535439 162.80835146 48.86199369 167.13602231 43.03083801 169.86463928 C40.14615873 170.84978957 37.89564157 171.05426759 34.85449219 171.08862305 C33.77955002 171.10461044 32.70460785 171.12059784 31.59709167 171.1370697 C30.44493668 171.1424324 29.29278168 171.1477951 28.10571289 171.15332031 C26.91097855 171.16234879 25.7162442 171.17137726 24.48530579 171.18067932 C21.9594676 171.19517509 19.43359192 171.20406687 16.90771484 171.20776367 C13.05574831 171.21965171 9.20538802 171.26884135 5.35375977 171.31933594 C2.89608527 171.32880151 0.43840096 171.3360359 -2.01928711 171.34082031 C-3.16536942 171.36035263 -4.31145172 171.37988495 -5.49226379 171.40000916 C-12.51127431 171.36066971 -17.25926184 170.43029304 -22.65600586 165.78222656 C-28.43894944 159.54273481 -29.18001035 154.6650227 -29.02319336 146.26660156 C-28.37972112 140.16046077 -26.12417393 136.92284335 -21.56616211 132.96972656 C-16.29670091 129.07843214 -14.78715425 128.78222656 -7.65600586 128.78222656 C-7.65600586 100.40222656 -7.65600586 72.02222656 -7.65600586 42.78222656 C-9.96600586 42.78222656 -12.27600586 42.78222656 -14.65600586 42.78222656 C-20.49811974 40.44339051 -24.45196022 36.33274372 -27.73022461 31.05175781 C-30.00969458 25.46369007 -29.69257039 17.98249377 -27.85131836 12.29785156 C-21.65942598 1.28055339 -11.5856519 -0.19461201 0 0 Z " fill="#FEFEFE" transform="translate(242.656005859375,210.2177734375)"/>
<path d="M0 0 C1.18888773 0.73609857 2.35799016 1.50558695 3.5 2.3125 C5.046875 3.3025 5.046875 3.3025 6.625 4.3125 C11.49511265 8.64743544 14.74640979 15.44652097 15.98046875 21.77734375 C16.27203768 29.67747344 13.43991819 37.34893675 8.4765625 43.44921875 C2.70896304 48.88626409 -4.19198149 51.65023474 -12.0625 52.0625 C-19.75951996 51.65642221 -25.89394663 48.83006126 -31.41015625 43.44921875 C-36.40286584 37.32793599 -39.30294139 29.72050142 -38.96875 21.76953125 C-37.32257501 13.1408307 -32.78686846 6.66244852 -25.74609375 1.6171875 C-18.19282319 -2.77027749 -8.06643793 -3.85379143 0 0 Z " fill="#FBFDFE" transform="translate(267.5,132.6875)"/>
</svg>
